REM GENRE Vocal
REM DATE 2011
REM DISCID B10E380D
REM COMMENT "ExactAudioCopy v1.0b3"
PERFORMER "KOKIA"
TITLE "outwork collection p i e c e s"
FILE "KOKIA - outwork collection p i e c e s.wav" WAVE
  TRACK 01 AUDIO
    TITLE "KARMA"
    PERFORMER "KOKIA"
    INDEX 01 00:00:00
  TRACK 02 AUDIO
    TITLE "Insonnia"
    PERFORMER "KOKIA"
    INDEX 00 05:11:10
    INDEX 01 05:14:41
  TRACK 03 AUDIO
    TITLE "Transparent"
    PERFORMER "KOKIA"
    INDEX 00 08:47:50
    INDEX 01 08:52:05
  TRACK 04 AUDIO
    TITLE "沈默"
    PERFORMER "KOKIA"
    INDEX 00 13:32:60
    INDEX 01 13:36:16
  TRACK 05 AUDIO
    TITLE "Fate"
    PERFORMER "KOKIA"
    INDEX 00 18:05:24
    INDEX 01 18:08:55
  TRACK 06 AUDIO
    TITLE "ヲモイ"
    PERFORMER "KOKIA"
    INDEX 00 21:53:01
    INDEX 01 21:56:32
  TRACK 07 AUDIO
    TITLE "嘆きの音"
    PERFORMER "KOKIA"
    INDEX 00 27:13:63
    INDEX 01 27:18:17
  TRACK 08 AUDIO
    TITLE "言の葉"
    PERFORMER "KOKIA"
    INDEX 00 32:20:36
    INDEX 01 32:23:67
  TRACK 09 AUDIO
    TITLE "あなたと出逢って"
    PERFORMER "KOKIA"
    INDEX 00 38:09:58
    INDEX 01 38:13:14
  TRACK 10 AUDIO
    TITLE "Road to glory~for Dragon Nest White ersion"
    PERFORMER "KOKIA"
    INDEX 00 42:07:18
    INDEX 01 42:11:47
  TRACK 11 AUDIO
    TITLE "EXEC_REBIRTHIA=PROTOCOL／."
    PERFORMER "KOKIA"
    INDEX 00 47:30:67
    INDEX 01 47:34:23
  TRACK 12 AUDIO
    TITLE "EXEC_COSMOFLIPS／."
    PERFORMER "KOKIA"
    INDEX 00 52:26:14
    INDEX 01 52:29:45
  TRACK 13 AUDIO
    TITLE "光の中に"
    PERFORMER "KOKIA"
    INDEX 00 56:03:55
    INDEX 01 56:07:11
